<?xml version="1.0" encoding="UTF-8" standalone="no"?>
<!DOCTYPE svg PUBLIC "-//W3C//DTD SVG 1.1//EN" "http://www.w3.org/Graphics/SVG/1.1/DTD/svg11.dtd">
<svg version="1.1" xmlns="http://www.w3.org/2000/svg" xmlns:xlink="http://www.w3.org/1999/xlink" preserveAspectRatio="xMidYMid meet" viewBox="0 0 640 640" width="640" height="640"><defs><path d="M370.31 144.12C370.31 122.04 388.23 104.12 410.31 104.12C412.98 104.12 426.31 104.12 450.31 104.12L450.31 4.12C402.31 4.12 375.64 4.12 370.31 4.12C304.03 4.12 250.31 57.84 250.31 124.12C250.31 130.79 250.31 164.12 250.31 224.12L170.31 224.12L170.31 324.12L250.31 324.12L250.31 644.12L370.31 644.12L370.31 324.12L450.31 324.12L490.31 224.12L370.31 224.12C370.31 176.12 370.31 149.46 370.31 144.12Z" id="ejZXO9NcD"></path></defs><g><g><g><use xlink:href="#ejZXO9NcD" opacity="1" fill="#f8fbfa" fill-opacity="1"></use><g><use xlink:href="#ejZXO9NcD" opacity="1" fill-opacity="0" stroke="#000000" stroke-width="1" stroke-opacity="0"></use></g></g></g></g></svg>