<?xml version="1.0" encoding="UTF-8" standalone="no"?>
<!DOCTYPE svg PUBLIC "-//W3C//DTD SVG 1.1//EN" "http://www.w3.org/Graphics/SVG/1.1/DTD/svg11.dtd">
<svg version="1.1" xmlns="http://www.w3.org/2000/svg" xmlns:xlink="http://www.w3.org/1999/xlink" preserveAspectRatio="xMidYMid meet" viewBox="0 0 640 640" width="640" height="640"><defs><path d="M385.62 353.6C379.53 347.8 373.44 342.52 367.35 337.76C361.26 333 355.7 328.43 350.66 324.05C345.62 319.68 341.52 315.11 338.38 310.35C335.24 305.6 333.67 300.75 333.67 295.8C333.67 288.94 335.86 282.52 340.24 276.53C344.62 270.53 349.94 264.73 356.22 259.11C362.5 253.5 368.78 247.36 375.06 240.7C381.34 234.04 386.66 225.24 391.04 214.3C395.42 203.35 397.61 190.84 397.61 176.76C397.61 160.01 393.89 143.93 386.47 128.52C379.05 113.11 368.59 101.11 355.07 92.55C357.64 92.55 370.49 92.55 393.61 92.55L432.14 70C357.3 70 315.72 70 307.41 70C289.71 70 271.92 71.91 254.03 75.72C227.58 81.62 205.32 95.08 187.24 116.11C169.16 137.14 160.12 160.97 160.12 187.61C160.12 215.78 170.26 239.19 190.52 257.83C210.79 276.48 235.1 285.81 263.45 285.81C269.16 285.81 275.82 285.33 283.44 284.38C283.05 285.9 282.39 287.95 281.44 290.51C280.48 293.08 279.72 295.13 279.15 296.65C278.58 298.17 278.11 300.03 277.73 302.22C277.35 304.41 277.16 306.65 277.16 308.93C277.16 321.49 283.24 335.67 295.42 351.46C280.96 351.85 266.69 353.13 252.61 355.32C238.53 357.51 223.78 360.93 208.36 365.6C192.95 370.26 179.15 377.01 166.98 385.86C154.8 394.72 145.66 405.23 139.57 417.41C132.53 431.49 129.01 444.33 129.01 455.94C129.01 468.69 131.87 480.25 137.57 490.63C143.28 500.99 150.61 509.46 159.55 516.03C168.49 522.6 178.82 528.11 190.52 532.59C202.22 537.05 213.83 540.24 225.35 542.15C236.86 544.05 248.23 545 259.46 545C310.45 545 350.42 532.54 379.34 507.61C405.99 484.39 419.31 457.56 419.31 427.11C419.31 416.25 417.74 406.13 414.6 396.7C411.46 387.28 407.37 379.19 402.32 372.44C397.28 365.68 391.71 359.4 385.62 353.6ZM264.59 261.26C255.84 256.31 248.41 249.89 242.33 241.99C236.24 234.09 230.91 225.2 226.34 215.3C221.78 205.41 218.4 195.51 216.21 185.61C214.02 175.72 212.92 166.3 212.92 157.35C212.92 139.09 217.78 123.39 227.48 110.26C237.19 97.12 250.89 90.56 268.59 90.56C281.15 90.56 292.52 94.46 302.7 102.26C312.88 110.06 320.87 119.96 326.68 131.95C332.48 143.93 336.95 156.35 340.09 169.2C343.23 182.04 344.8 194.17 344.8 205.59C344.8 224.62 340.67 239.9 332.39 251.42C324.11 262.93 310.74 268.68 292.28 268.68C282.57 268.68 273.35 266.21 264.59 261.26ZM349.94 504.02C341 509.07 331.44 512.78 321.25 515.16C311.07 517.54 300.37 518.73 289.14 518.73C276.96 518.73 264.87 517.3 252.89 514.45C240.9 511.6 229.43 507.26 218.49 501.46C207.55 495.66 198.7 487.66 191.95 477.48C185.19 467.3 181.81 455.74 181.81 442.8C181.81 431.38 184.38 421.2 189.52 412.25C194.66 403.31 201.23 396.17 209.22 390.85C217.21 385.52 226.53 381.14 237.19 377.72C247.85 374.29 258.12 371.91 268.02 370.58C277.91 369.25 288 368.59 298.28 368.59C304.56 368.59 309.32 368.78 312.55 369.16C313.69 369.92 316.59 371.91 321.26 375.15C325.92 378.39 329.06 380.58 330.68 381.72C332.29 382.86 335.24 385.04 339.53 388.28C343.81 391.52 346.85 393.94 348.66 395.56C350.46 397.18 353.08 399.6 356.51 402.84C359.93 406.07 362.45 408.88 364.07 411.26C365.69 413.63 367.69 416.53 370.07 419.96C372.44 423.39 374.11 426.67 375.06 429.81C376.01 432.95 376.92 436.38 377.77 440.08C378.62 443.8 379.05 447.65 379.05 451.65C379.06 463.64 376.44 474.1 371.2 483.04C365.98 491.99 358.89 498.98 349.94 504.02Z" id="c9kUvXl6O"></path><path d="M530.92 70L494.38 70L494.38 143.07L421.3 143.07L421.3 179.61L494.38 179.61L494.38 252.69L530.92 252.69L530.92 179.61L603.99 179.61L603.99 143.07L530.92 143.07L530.92 70Z" id="d7X2p7IOr0"></path></defs><g><g><g><use xlink:href="#c9kUvXl6O" opacity="1" fill="#fffcfc" fill-opacity="1"></use><g><use xlink:href="#c9kUvXl6O" opacity="1" fill-opacity="0" stroke="#000000" stroke-width="1" stroke-opacity="0"></use></g></g><g><use xlink:href="#d7X2p7IOr0" opacity="1" fill="#fffcfc" fill-opacity="1"></use><g><use xlink:href="#d7X2p7IOr0" opacity="1" fill-opacity="0" stroke="#000000" stroke-width="1" stroke-opacity="0"></use></g></g></g></g></svg>