<?xml version="1.0" encoding="UTF-8" standalone="no"?>
<!DOCTYPE svg PUBLIC "-//W3C//DTD SVG 1.1//EN" "http://www.w3.org/Graphics/SVG/1.1/DTD/svg11.dtd">
<svg version="1.1" xmlns="http://www.w3.org/2000/svg" xmlns:xlink="http://www.w3.org/1999/xlink" preserveAspectRatio="xMidYMid meet" viewBox="0 0 640 640" width="640" height="640"><defs><path d="M12.99 542.03C12.99 563.76 21.04 582.4 37.16 597.95C53.27 613.5 72.57 621.29 95.08 621.29C142.65 621.29 523.33 621.29 570.92 621.29C593.4 621.29 612.72 613.5 628.82 597.95C644.94 582.4 652.99 563.76 652.99 542.03C652.99 496.09 652.99 128.57 652.99 82.61C652.99 60.9 644.94 42.26 628.84 26.71C612.72 11.14 593.4 3.37 570.92 3.37C523.34 3.37 142.65 3.37 95.08 3.37C72.57 3.37 53.27 11.14 37.16 26.71C21.04 42.26 12.99 60.9 12.99 82.61C12.99 128.57 12.99 496.09 12.99 542.03ZM333.41 431.42C298.14 431.42 267.93 419.67 242.79 396.2C217.64 372.74 205.08 344.37 205.08 311.11C205.08 277.86 217.64 249.51 242.79 226.03C267.92 202.57 298.14 190.83 333.41 190.83C368.96 190.83 399.31 202.57 424.46 226.03C449.59 249.51 462.16 277.86 462.16 311.11C462.16 344.37 449.59 372.74 424.46 396.2C399.31 419.68 368.98 431.42 333.41 431.42ZM84.25 525.55C84.25 508.17 84.25 421.27 84.25 264.86C119.5 264.86 139.08 264.86 142.99 264.86C137.44 281.76 134.67 299.33 134.67 317.55C134.67 369.05 154.11 412.97 192.99 449.32C231.89 485.66 278.69 503.83 333.41 503.83C369.52 503.83 402.85 495.51 433.42 478.89C463.97 462.24 488.12 439.65 505.92 411.08C523.7 382.53 532.59 351.36 532.59 317.56C532.59 299.33 529.8 281.76 524.24 264.86C528 264.86 546.75 264.86 580.5 264.86C580.5 282.24 580.5 369.14 580.5 525.55C580.5 525.55 580.5 525.55 580.5 525.55C578.83 534.08 576.32 539.92 572.99 543.05C567.99 547.73 562.03 550.09 555.07 550.09C510.53 550.09 154.2 550.09 109.66 550.09C102.45 550.09 96.39 547.73 91.55 543.05C86.68 538.35 84.25 532.52 84.25 525.55ZM450.5 166.29C450.5 159.66 450.5 106.55 450.5 99.92C450.5 92.41 453.27 85.91 458.82 80.42C464.38 74.91 471.19 72.16 479.24 72.16C486.5 72.16 544.5 72.16 551.74 72.16C559.81 72.16 566.6 74.91 572.15 80.42C577.72 85.91 580.5 92.41 580.5 99.92C580.5 104.34 580.5 126.47 580.5 166.29C578.64 175.87 575.87 182.42 572.15 186.01C566.6 191.37 559.81 194.05 551.74 194.05C544.5 194.05 486.5 194.05 479.24 194.05C471.19 194.05 464.38 191.37 458.82 186.01C453.27 180.65 450.5 174.07 450.5 166.29Z" id="cghYH2Tow"></path><path d="M12.99 542.03C12.99 563.76 21.04 582.4 37.16 597.95C53.27 613.5 72.57 621.29 95.08 621.29C142.65 621.29 523.33 621.29 570.92 621.29C593.4 621.29 612.72 613.5 628.82 597.95C644.94 582.4 652.99 563.76 652.99 542.03C652.99 496.09 652.99 128.57 652.99 82.61C652.99 60.9 644.94 42.26 628.84 26.71C612.72 11.14 593.4 3.37 570.92 3.37C523.34 3.37 142.65 3.37 95.08 3.37C72.57 3.37 53.27 11.14 37.16 26.71C21.04 42.26 12.99 60.9 12.99 82.61C12.99 128.57 12.99 496.09 12.99 542.03ZM333.41 431.42C298.14 431.42 267.93 419.67 242.79 396.2C217.64 372.74 205.08 344.37 205.08 311.11C205.08 277.86 217.64 249.51 242.79 226.03C267.92 202.57 298.14 190.83 333.41 190.83C368.96 190.83 399.31 202.57 424.46 226.03C449.59 249.51 462.16 277.86 462.16 311.11C462.16 344.37 449.59 372.74 424.46 396.2C399.31 419.68 368.98 431.42 333.41 431.42ZM84.25 525.55C84.25 508.17 84.25 421.27 84.25 264.86C119.5 264.86 139.08 264.86 142.99 264.86C137.44 281.76 134.67 299.33 134.67 317.55C134.67 369.05 154.11 412.97 192.99 449.32C231.89 485.66 278.69 503.83 333.41 503.83C369.52 503.83 402.85 495.51 433.42 478.89C463.97 462.24 488.12 439.65 505.92 411.08C523.7 382.53 532.59 351.36 532.59 317.56C532.59 299.33 529.8 281.76 524.24 264.86C528 264.86 546.75 264.86 580.5 264.86C580.5 282.24 580.5 369.14 580.5 525.55C580.5 525.55 580.5 525.55 580.5 525.55C578.83 534.08 576.32 539.92 572.99 543.05C567.99 547.73 562.03 550.09 555.07 550.09C510.53 550.09 154.2 550.09 109.66 550.09C102.45 550.09 96.39 547.73 91.55 543.05C86.68 538.35 84.25 532.52 84.25 525.55ZM450.5 166.29C450.5 159.66 450.5 106.55 450.5 99.92C450.5 92.41 453.27 85.91 458.82 80.42C464.38 74.91 471.19 72.16 479.24 72.16C486.5 72.16 544.5 72.16 551.74 72.16C559.81 72.16 566.6 74.91 572.15 80.42C577.72 85.91 580.5 92.41 580.5 99.92C580.5 104.34 580.5 126.47 580.5 166.29C578.64 175.87 575.87 182.42 572.15 186.01C566.6 191.37 559.81 194.05 551.74 194.05C544.5 194.05 486.5 194.05 479.24 194.05C471.19 194.05 464.38 191.37 458.82 186.01C453.27 180.65 450.5 174.07 450.5 166.29Z" id="a35bJDaNnR"></path></defs><g><g><g><use xlink:href="#cghYH2Tow" opacity="1" fill="#f6eeee" fill-opacity="1"></use><g><use xlink:href="#cghYH2Tow" opacity="1" fill-opacity="0" stroke="#000000" stroke-width="1" stroke-opacity="0"></use></g></g><g><use xlink:href="#a35bJDaNnR" opacity="1" fill="#f7f4f4" fill-opacity="1"></use><g><use xlink:href="#a35bJDaNnR" opacity="1" fill-opacity="0" stroke="#000000" stroke-width="1" stroke-opacity="0"></use></g></g></g></g></svg>