<?xml version="1.0" encoding="UTF-8" standalone="no"?>
<!DOCTYPE svg PUBLIC "-//W3C//DTD SVG 1.1//EN" "http://www.w3.org/Graphics/SVG/1.1/DTD/svg11.dtd">
<svg version="1.1" xmlns="http://www.w3.org/2000/svg" xmlns:xlink="http://www.w3.org/1999/xlink" preserveAspectRatio="xMidYMid meet" viewBox="0 0 640 640" width="640" height="640"><defs><path d="M0 320C0 401.64 30.75 479.37 86.57 538.88C96.28 549.23 112.53 549.75 122.88 540.05C133.23 530.34 133.75 514.08 124.04 503.73C77.19 453.78 51.38 388.53 51.38 320C51.38 171.88 171.88 51.38 320 51.38C468.11 51.38 588.62 171.88 588.62 320C588.62 468.12 468.11 588.62 320 588.62C293.74 588.62 268 584.88 243.2 577.49C245.83 567.22 266.85 485.06 269.48 474.79C285.73 478.75 302.51 480.77 319.63 480.77C427.55 480.77 515.36 399.75 515.36 300.16C515.36 200.57 427.55 119.54 319.63 119.54C211.71 119.54 123.9 200.57 123.9 300.16C123.9 336.05 135.27 370.73 156.79 400.44C165.11 411.94 181.18 414.51 192.66 406.18C204.16 397.86 206.72 381.8 198.4 370.31C183.28 349.41 175.28 325.16 175.28 300.16C175.28 228.9 240.04 170.92 319.63 170.92C399.22 170.92 463.98 228.9 463.98 300.16C463.98 371.42 399.23 429.39 319.63 429.39C306.84 429.39 294.32 427.92 282.21 425.02C285.81 410.96 314.58 298.5 318.17 284.45C321.69 270.7 313.4 256.71 299.65 253.19C285.91 249.67 271.92 257.96 268.4 271.71C260.31 303.31 195.65 556.08 187.56 587.67C184.35 600.23 191 613.21 203.06 617.95C240.31 632.58 279.66 640 320 640C496.45 640 640 496.45 640 320C640 143.55 496.45 0 320 0C143.55 0 0 143.55 0 320Z" id="a1jeGsk1SP"></path></defs><g><g><g><use xlink:href="#a1jeGsk1SP" opacity="1" fill="#fcf8f8" fill-opacity="1"></use><g><use xlink:href="#a1jeGsk1SP" opacity="1" fill-opacity="0" stroke="#000000" stroke-width="1" stroke-opacity="0"></use></g></g></g></g></svg>