<?xml version="1.0" encoding="UTF-8" standalone="no"?>
<!DOCTYPE svg PUBLIC "-//W3C//DTD SVG 1.1//EN" "http://www.w3.org/Graphics/SVG/1.1/DTD/svg11.dtd">
<svg version="1.1" xmlns="http://www.w3.org/2000/svg" xmlns:xlink="http://www.w3.org/1999/xlink" preserveAspectRatio="xMidYMid meet" viewBox="0 0 640 640" width="640" height="640"><defs><path d="M159.49 394.83C115.31 394.83 79.49 431.89 79.49 477.6C79.49 523.31 115.31 560.36 159.49 560.36C203.67 560.36 239.49 523.31 239.49 477.6C239.49 431.89 203.67 394.83 159.49 394.83Z" id="aVsvdw0Le"></path><path d="M381.54 522.36C401.14 522.36 417.17 506.32 417.17 486.73C417.17 335.65 294.24 212.36 142.8 212.36C123.2 212.36 107.17 228.39 107.17 247.99C107.17 267.59 123.2 283.62 142.8 283.62C255.04 283.62 345.91 374.84 345.91 486.73C345.91 506.32 361.94 522.36 381.54 522.36Z" id="bymFasy3D"></path><path d="M600.28 474.13C600.28 230.83 402.32 32.87 159.03 32.87C137.72 32.87 120.28 50.3 120.28 71.61C120.28 92.91 137.72 110.35 159.03 110.35C359.7 110.35 522.8 273.45 522.8 474.13C522.8 495.43 539.85 512.87 561.54 512.87C582.85 512.87 600.28 495.43 600.28 474.13Z" id="bYglJAjsC"></path></defs><g><g><g><use xlink:href="#aVsvdw0Le" opacity="1" fill="#fefefe" fill-opacity="1"></use><g><use xlink:href="#aVsvdw0Le" opacity="1" fill-opacity="0" stroke="#000000" stroke-width="1" stroke-opacity="0"></use></g></g><g><use xlink:href="#bymFasy3D" opacity="1" fill="#fefbfb" fill-opacity="1"></use><g><use xlink:href="#bymFasy3D" opacity="1" fill-opacity="0" stroke="#000000" stroke-width="1" stroke-opacity="0"></use></g></g><g><use xlink:href="#bYglJAjsC" opacity="1" fill="#fef6f6" fill-opacity="1"></use><g><use xlink:href="#bYglJAjsC" opacity="1" fill-opacity="0" stroke="#000000" stroke-width="1" stroke-opacity="0"></use></g></g></g></g></svg>