<?xml version="1.0" encoding="UTF-8" standalone="no"?>
<!DOCTYPE svg PUBLIC "-//W3C//DTD SVG 1.1//EN" "http://www.w3.org/Graphics/SVG/1.1/DTD/svg11.dtd">
<svg version="1.1" xmlns="http://www.w3.org/2000/svg" xmlns:xlink="http://www.w3.org/1999/xlink" preserveAspectRatio="xMidYMid meet" viewBox="0 0 640 640" width="640" height="640"><defs><path d="M0 542.03C0 563.76 8.05 582.4 24.17 597.95C40.28 613.5 59.58 621.29 82.09 621.29C129.66 621.29 510.34 621.29 557.93 621.29C580.41 621.29 599.73 613.5 615.83 597.95C631.95 582.4 640 563.76 640 542.03C640 496.09 640 128.57 640 82.61C640 60.9 631.95 42.26 615.85 26.71C599.73 11.14 580.41 3.37 557.93 3.37C510.35 3.37 129.66 3.37 82.09 3.37C59.58 3.37 40.28 11.14 24.17 26.71C8.05 42.26 0 60.9 0 82.61C0 128.57 0 496.09 0 542.03ZM320.42 431.42C285.15 431.42 254.94 419.67 229.8 396.2C204.65 372.74 192.09 344.37 192.09 311.11C192.09 277.86 204.65 249.51 229.8 226.03C254.93 202.57 285.15 190.83 320.42 190.83C355.97 190.83 386.32 202.57 411.47 226.03C436.6 249.51 449.17 277.86 449.17 311.11C449.17 344.37 436.6 372.74 411.47 396.2C386.32 419.68 355.99 431.42 320.42 431.42ZM71.26 525.55C71.26 508.17 71.26 421.27 71.26 264.86C106.51 264.86 126.09 264.86 130 264.86C124.45 281.76 121.68 299.33 121.68 317.55C121.68 369.05 141.12 412.97 180 449.32C218.9 485.66 265.7 503.83 320.42 503.83C356.53 503.83 389.86 495.51 420.43 478.89C450.98 462.24 475.13 439.65 492.93 411.08C510.71 382.53 519.6 351.36 519.6 317.56C519.6 299.33 516.81 281.76 511.25 264.86C515.01 264.86 533.76 264.86 567.51 264.86C567.51 282.24 567.51 369.14 567.51 525.55C567.51 525.55 567.51 525.55 567.51 525.55C565.84 534.08 563.33 539.92 560 543.05C555 547.73 549.04 550.09 542.08 550.09C497.54 550.09 141.21 550.09 96.67 550.09C89.46 550.09 83.4 547.73 78.56 543.05C73.69 538.35 71.26 532.52 71.26 525.55ZM437.51 166.29C437.51 159.66 437.51 106.55 437.51 99.92C437.51 92.41 440.28 85.91 445.83 80.42C451.39 74.91 458.2 72.16 466.25 72.16C473.51 72.16 531.51 72.16 538.75 72.16C546.82 72.16 553.61 74.91 559.16 80.42C564.73 85.91 567.51 92.41 567.51 99.92C567.51 104.34 567.51 126.47 567.51 166.29C565.65 175.87 562.88 182.42 559.16 186.01C553.61 191.37 546.82 194.05 538.75 194.05C531.51 194.05 473.51 194.05 466.25 194.05C458.2 194.05 451.39 191.37 445.83 186.01C440.28 180.65 437.51 174.07 437.51 166.29Z" id="f2oXiDKNDH"></path></defs><g><g><g><use xlink:href="#f2oXiDKNDH" opacity="1" fill="#86878b" fill-opacity="1"></use><g><use xlink:href="#f2oXiDKNDH" opacity="1" fill-opacity="0" stroke="#000000" stroke-width="1" stroke-opacity="0"></use></g></g></g></g></svg>