<?xml version="1.0" encoding="UTF-8" standalone="no"?>
<!DOCTYPE svg PUBLIC "-//W3C//DTD SVG 1.1//EN" "http://www.w3.org/Graphics/SVG/1.1/DTD/svg11.dtd">
<svg version="1.1" xmlns="http://www.w3.org/2000/svg" xmlns:xlink="http://www.w3.org/1999/xlink" preserveAspectRatio="xMidYMid meet" viewBox="0 0 640 640" width="640" height="640"><defs><path d="M320 170C340.63 170 358.75 186.88 358.75 207.5C358.75 212.35 358.75 236.6 358.75 280.25C361.35 281.55 374.35 288.05 397.75 299.75C430.6 288.72 448.85 282.6 452.5 281.37C452.5 225.8 452.5 194.92 452.5 188.75C452.5 118.21 393.65 57.5 320 57.5C246.32 57.5 187.5 118.2 187.5 188.75C187.5 192.6 187.5 436.35 187.5 432.5C187.5 453.13 170.63 470 150 470C129.38 470 112.5 453.13 112.5 432.5C112.5 424.45 112.5 333.79 112.5 338.75C101.25 338.75 11.25 338.75 0 338.75C0 350.63 0 446.2 0 441.88C0 519.5 63 582.5 140.63 582.5C218.9 582.5 281.25 518.59 281.25 441.88C281.25 420.96 281.25 203.65 281.25 207.5C281.25 186.88 299.38 170 320 170Z" id="b5ChjJyTu7"></path><path d="M320 170C340.63 170 358.75 186.88 358.75 207.5C358.75 212.35 358.75 236.6 358.75 280.25C361.35 281.55 374.35 288.05 397.75 299.75C430.6 288.72 448.85 282.6 452.5 281.37C452.5 225.8 452.5 194.92 452.5 188.75C452.5 118.21 393.65 57.5 320 57.5C246.32 57.5 187.5 118.2 187.5 188.75C187.5 192.6 187.5 436.35 187.5 432.5C187.5 453.13 170.63 470 150 470C129.38 470 112.5 453.13 112.5 432.5C112.5 424.45 112.5 333.79 112.5 338.75C101.25 338.75 11.25 338.75 0 338.75C0 350.63 0 446.2 0 441.88C0 519.5 63 582.5 140.63 582.5C218.9 582.5 281.25 518.59 281.25 441.88C281.25 420.96 281.25 203.65 281.25 207.5C281.25 186.88 299.38 170 320 170Z" id="a4zjZyhtKP"></path><path d="M452.5 432.5C452.5 426 452.5 314.29 452.5 321.12C448.65 322.4 429.4 328.77 394.75 340.25C373.15 329.45 361.15 323.45 358.75 322.25C358.75 327.85 358.75 447.53 358.75 441.88C358.75 518.6 421.11 582.5 499.38 582.5C577 582.5 640 519.5 640 441.88C640 423.2 640 333.56 640 338.75C628.75 338.75 538.75 338.75 527.5 338.75C527.5 345.46 527.5 436.35 527.5 432.5C527.5 453.13 510.63 470 490 470C469.38 470 452.5 453.13 452.5 432.5Z" id="cXIjk7n76"></path><path d="M452.5 432.5C452.5 426 452.5 314.29 452.5 321.12C448.65 322.4 429.4 328.77 394.75 340.25C373.15 329.45 361.15 323.45 358.75 322.25C358.75 327.85 358.75 447.53 358.75 441.88C358.75 518.6 421.11 582.5 499.38 582.5C577 582.5 640 519.5 640 441.88C640 423.2 640 333.56 640 338.75C628.75 338.75 538.75 338.75 527.5 338.75C527.5 345.46 527.5 436.35 527.5 432.5C527.5 453.13 510.63 470 490 470C469.38 470 452.5 453.13 452.5 432.5Z" id="a8OxXIUdf"></path></defs><g><g><g><use xlink:href="#b5ChjJyTu7" opacity="1" fill="#87868b" fill-opacity="1"></use><g><use xlink:href="#b5ChjJyTu7" opacity="1" fill-opacity="0" stroke="#000000" stroke-width="1" stroke-opacity="0"></use></g></g><g><use xlink:href="#a4zjZyhtKP" opacity="1" fill="#87868b" fill-opacity="1"></use><g><use xlink:href="#a4zjZyhtKP" opacity="1" fill-opacity="0" stroke="#000000" stroke-width="1" stroke-opacity="0"></use></g></g><g><use xlink:href="#cXIjk7n76" opacity="1" fill="#87868b" fill-opacity="1"></use><g><use xlink:href="#cXIjk7n76" opacity="1" fill-opacity="0" stroke="#000000" stroke-width="1" stroke-opacity="0"></use></g></g><g><use xlink:href="#a8OxXIUdf" opacity="1" fill="#87868b" fill-opacity="1"></use><g><use xlink:href="#a8OxXIUdf" opacity="1" fill-opacity="0" stroke="#000000" stroke-width="1" stroke-opacity="0"></use></g></g></g></g></svg>